<svg width="11" height="11" viewBox="0 0 11 11" fill="none" xmlns="http://www.w3.org/2000/svg">
<path d="M5.796 4.406C6.282 4.406 6.516 4.568 6.714 4.964H8.28C7.866 3.704 7.164 2.984 5.796 2.984C4.122 2.984 3.132 4.226 3.132 5.864C3.132 7.466 4.104 8.726 5.796 8.726C7.236 8.726 7.956 8.042 8.28 6.674H6.75C6.606 7.142 6.39 7.304 5.796 7.304C5.076 7.304 4.698 6.926 4.698 5.864C4.698 4.838 5.022 4.406 5.796 4.406ZM5.778 0.805999C2.736 0.805999 0.72 2.804 0.72 5.864C0.72 8.906 2.79 10.922 5.778 10.922C8.82 10.922 10.836 8.888 10.836 5.864C10.836 2.822 8.82 0.805999 5.778 0.805999ZM5.778 9.914C3.258 9.914 1.764 8.384 1.764 5.864C1.764 3.326 3.258 1.796 5.778 1.796C8.298 1.796 9.81 3.326 9.81 5.864C9.81 8.384 8.298 9.914 5.778 9.914Z" fill="#A69BA4"/>
</svg>
